<?xml version="1.0" encoding="UTF-8"?>
<svg width="100%" height="100%" viewBox="0 0 800 400" fill="none" xmlns="http://www.w3.org/2000/svg">
    <!-- Background pattern -->
    <pattern id="grid" x="0" y="0" width="40" height="40" patternUnits="userSpaceOnUse">
        <path d="M0 0h40v40H0z" fill="#f8fafc"/>
        <circle cx="20" cy="20" r="1" fill="#e2e8f0"/>
    </pattern>
    <rect width="100%" height="100%" fill="url(#grid)"/>
    
    <!-- Wave decoration -->
    <path d="M0,200 C200,150 400,250 800,200" 
          stroke="url(#wave-gradient)" 
          stroke-width="3" 
          fill="none" 
          opacity="0.6">
        <animate attributeName="d" 
                 dur="8s"
                 repeatCount="indefinite"
                 values="M0,200 C200,150 400,250 800,200;
                         M0,200 C200,250 400,150 800,200;
                         M0,200 C200,150 400,250 800,200"/>
    </path>
    
    <!-- Brain icon -->
    <g transform="translate(350,100) scale(0.8)">
        <path d="M60,140 C0,140 0,60 60,60 C60,0 140,0 140,60 C200,60 200,140 140,140 C140,200 60,200 60,140" 
              fill="url(#brain-gradient)" 
              opacity="0.9">
            <animate attributeName="opacity" 
                     values="0.8;1;0.8" 
                     dur="3s" 
                     repeatCount="indefinite"/>
        </path>
    </g>
    
    <!-- Gradients -->
    <defs>
        <linearGradient id="wave-gradient" x1="0" y1="0" x2="100%" y2="0">
            <stop offset="0%" stop-color="#60a5fa"/>
            <stop offset="100%" stop-color="#3b82f6"/>
        </linearGradient>
        <linearGradient id="brain-gradient" x1="0" y1="0" x2="100%" y2="100%">
            <stop offset="0%" stop-color="#3b82f6"/>
            <stop offset="50%" stop-color="#2563eb"/>
            <stop offset="100%" stop-color="#1d4ed8"/>
        </linearGradient>
    </defs>
</svg>